{
  "asset": {
    "version": "2.0",
    "generator": "AR-Face-Try-On Model Generator"
  },
  "scene": 0,
  "scenes": [
    {
      "nodes": [
        0
      ]
    }
  ],
  "nodes": [
    {
      "mesh": 0,
      "name": "basic_glasses"
    }
  ],
  "meshes": [
    {
      "primitives": [
        {
          "attributes": {
            "POSITION": 0
          },
          "indices": 1,
          "mode": 1,
          "material": 0
        }
      ]
    }
  ],
  "materials": [
    {
      "name": "basic_glasses_material",
      "pbrMetallicRoughness": {
        "baseColorFactor": [
          0.1,
          0.1,
          0.1,
          1.0
        ],
        "metallicFactor": 0.8,
        "roughnessFactor": 0.2
      }
    }
  ],
  "accessors": [
    {
      "bufferView": 0,
      "componentType": 5126,
      "count": 24,
      "type": "VEC3",
      "min": [
        -0.45,
        -0.05,
        0.0
      ],
      "max": [
        0.45,
        0.15,
        0.15
      ]
    },
    {
      "bufferView": 1,
      "componentType": 5123,
      "count": 46,
      "type": "SCALAR"
    }
  ],
  "bufferViews": [
    {
      "buffer": 0,
      "byteOffset": 0,
      "byteLength": 288,
      "target": 34962
    },
    {
      "buffer": 0,
      "byteOffset": 288,
      "byteLength": 92,
      "target": 34963
    }
  ],
  "buffers": [
    {
      "byteLength": 380,
      "uri": "data:application/octet-stream;base64,"
    }
  ]
}